# xmcd
#
# Track frame offsets:
#	150
#	19261
#	36015
#	52396
#	68559
#	84914
#	219160
#	240773
#
# Disc length: 3401 seconds
# Revision: 0
# Processed by: cddbd v1.5.2PL0 Copyright (c) Steve Scherf et al.
# Submitted via: dBpowerAMP V12.0
#
DISCID=5c0d4708
DTITLE=Synthetic Breed - Fractured [EP]
DYEAR=2007
DGENRE=Industrial
TTITLE0=Fragile
TTITLE1=Chaos
TTITLE2=Cybernetics
TTITLE3=Catatonic
TTITLE4=Eclectic
TTITLE5=Paradox
TTITLE6=Fragmented Human Structure (Live)
TTITLE7=Becoming
EXTD=
EXTT0=
EXTT1=
EXTT2=
EXTT3=
EXTT4=
EXTT5=
EXTT6=
EXTT7=
PLAYORDER=
